<svg width="322" height="77" viewBox="0 0 322 77" fill="none" xmlns="http://www.w3.org/2000/svg">
<g clip-path="url(#clip0_252_732)">
<path d="M7.42867 62.1585C6.46251 62.1585 5.68838 62.0324 5.10628 61.7803C4.52418 61.5221 4.08311 61.096 3.78306 60.5017C3.48901 59.9074 3.29098 59.1001 3.18896 58.0796H4.91726C4.96525 58.8058 5.07928 59.3581 5.25931 59.7363C5.44534 60.1085 5.72138 60.3637 6.08745 60.5017C6.45351 60.6337 6.93358 60.6998 7.5277 60.6998C8.30782 60.6998 8.86892 60.5017 9.21098 60.1055C9.55903 59.7093 9.73306 59.13 9.73306 58.3677C9.73306 57.6953 9.65806 57.1702 9.50802 56.792C9.364 56.4078 9.06695 56.1376 8.61688 55.9815C8.17281 55.8195 7.50069 55.7385 6.60054 55.7385V54.3968C7.29665 54.3968 7.83975 54.3518 8.22981 54.2618C8.62588 54.1658 8.91392 54.0247 9.09396 53.8386C9.27399 53.6466 9.38501 53.4124 9.42701 53.1363C9.47502 52.8542 9.49903 52.53 9.49903 52.1638C9.49903 51.5516 9.343 51.0714 9.03095 50.7232C8.71889 50.375 8.1758 50.201 7.40167 50.201C6.86757 50.201 6.42351 50.258 6.06945 50.3719C5.71538 50.4801 5.44835 50.7141 5.26831 51.0744C5.09429 51.4345 5.00726 51.9868 5.00726 52.7311H3.27897C3.27897 51.6266 3.459 50.7892 3.81906 50.2189C4.18513 49.6426 4.68021 49.2525 5.30432 49.0484C5.92842 48.8443 6.62453 48.7422 7.39267 48.7422C8.1428 48.7422 8.8029 48.8623 9.373 49.1024C9.9431 49.3365 10.3872 49.7027 10.7052 50.201C11.0293 50.6991 11.1913 51.3444 11.1913 52.1368C11.1913 52.7431 11.1103 53.2563 10.9483 53.6765C10.7922 54.0967 10.5372 54.4238 10.1831 54.658C9.83509 54.886 9.36701 55.0271 8.7789 55.0811L8.83291 55.0001C9.38501 55.0841 9.85609 55.2433 10.2462 55.4773C10.6362 55.7115 10.9333 56.0597 11.1373 56.5219C11.3473 56.978 11.4524 57.5963 11.4524 58.3767C11.4524 59.2051 11.2933 59.9013 10.9753 60.4656C10.6632 61.024 10.2071 61.4472 9.60704 61.7353C9.00694 62.0174 8.28082 62.1585 7.42867 62.1585Z" fill="#9F9892"/>
<path d="M58.4031 61.9604V58.7999H52.6421V57.3862L57.404 48.9403H59.2853L54.4604 57.7554L54.2534 57.4043H58.4031V54.4239H59.9063V57.4043H61.8147V58.7999H59.9063V61.9604H58.4031Z" fill="#9F9892"/>
<path d="M107.082 62.1585C106.548 62.1585 106.05 62.1165 105.588 62.0324C105.132 61.9484 104.69 61.8193 104.264 61.6452C103.838 61.4712 103.4 61.255 102.95 60.997L103.427 59.6194C103.847 59.8954 104.231 60.1116 104.579 60.2675C104.927 60.4236 105.291 60.5347 105.669 60.6008C106.053 60.6668 106.5 60.6998 107.01 60.6998C107.85 60.6998 108.516 60.4867 109.008 60.0605C109.5 59.6342 109.746 58.95 109.746 58.0075C109.746 57.3953 109.659 56.873 109.485 56.4409C109.317 56.0026 109.05 55.6695 108.684 55.4414C108.324 55.2132 107.859 55.0992 107.289 55.0992C106.797 55.0992 106.341 55.2043 105.921 55.4144C105.507 55.6184 105.138 55.8435 104.814 56.0897L103.517 55.5494L103.976 48.9403H110.611V50.4261H105.426L105.129 54.8111L104.877 54.721C105.153 54.4208 105.522 54.1868 105.984 54.0187C106.452 53.8446 106.959 53.7576 107.505 53.7576C108.375 53.7576 109.101 53.9197 109.683 54.2438C110.266 54.568 110.703 55.0391 110.998 55.6574C111.298 56.2757 111.448 57.0291 111.448 57.9176C111.448 58.896 111.259 59.7004 110.881 60.3306C110.503 60.955 109.983 61.4172 109.323 61.7172C108.669 62.0114 107.922 62.1585 107.082 62.1585Z" fill="#9F9892"/>
<path d="M157.309 62.1585C156.247 62.1585 155.404 61.9724 154.78 61.6003C154.156 61.2221 153.708 60.7208 153.438 60.0966C153.168 59.4722 153.034 58.7849 153.034 58.0345C153.034 57.4463 153.105 56.885 153.25 56.3508C153.393 55.8165 153.604 55.2673 153.879 54.703C154.156 54.1387 154.491 53.5145 154.888 52.8302L157.129 48.9403H158.929L155.275 55.1353L155.085 54.8201C155.488 54.526 155.863 54.3248 156.211 54.2168C156.565 54.1088 157.009 54.0547 157.544 54.0547C158.443 54.0547 159.194 54.2198 159.794 54.5499C160.4 54.8801 160.855 55.3363 161.162 55.9186C161.468 56.5008 161.62 57.1761 161.62 57.9446C161.62 58.7009 161.48 59.4002 161.198 60.0424C160.921 60.6788 160.468 61.1921 159.839 61.5822C159.208 61.9664 158.365 62.1585 157.309 62.1585ZM157.382 60.6998C158.084 60.6998 158.617 60.5797 158.983 60.3396C159.356 60.0935 159.607 59.7753 159.74 59.3852C159.872 58.989 159.938 58.5688 159.938 58.1246C159.938 57.6864 159.869 57.2692 159.731 56.873C159.598 56.4768 159.346 56.1527 158.975 55.9006C158.602 55.6484 158.06 55.5224 157.345 55.5224C156.643 55.5224 156.1 55.6484 155.716 55.9006C155.338 56.1527 155.077 56.4768 154.932 56.873C154.789 57.2692 154.717 57.6864 154.717 58.1246C154.717 58.5688 154.789 58.989 154.932 59.3852C155.083 59.7753 155.35 60.0935 155.734 60.3396C156.118 60.5797 156.667 60.6998 157.382 60.6998Z" fill="#9F9892"/>
<path d="M204.691 61.9604L209.337 49.9578L209.598 50.4261H203.072V48.9403H211.002V50.354L206.592 61.9604H204.691Z" fill="#9F9892"/>
<path fill-rule="evenodd" clip-rule="evenodd" d="M258 46.3839C256.132 43.5193 252.875 39 247.424 39C241.918 39 239 43.8633 239 48.2923C239 54.1196 242.07 59.1285 245.938 63.2411C249.812 67.3596 254.569 70.6388 258 73C261.431 70.6388 266.188 67.3596 270.062 63.2411C273.93 59.1285 277 54.1196 277 48.2923C277 43.8633 274.082 39 268.576 39C263.125 39 259.868 43.5193 258 46.3839Z" fill="#5C644B"/>
<path d="M257.116 62.1585C256.035 62.1585 255.171 61.9994 254.523 61.6813C253.875 61.3571 253.406 60.9219 253.119 60.3757C252.836 59.8294 252.695 59.2171 252.695 58.5387C252.695 57.7164 252.96 57.0021 253.488 56.3958C254.016 55.7895 254.715 55.3183 255.586 54.9821L255.64 55.2252C255.177 55.0031 254.739 54.751 254.326 54.4689C253.917 54.1868 253.584 53.8446 253.326 53.4424C253.073 53.0342 252.948 52.542 252.948 51.9657C252.948 51.4075 253.086 50.8852 253.362 50.3991C253.643 49.9068 254.091 49.5076 254.703 49.2015C255.316 48.8954 256.119 48.7422 257.116 48.7422C258.196 48.7422 259.042 48.8983 259.655 49.2104C260.266 49.5226 260.695 49.9219 260.941 50.408C261.193 50.8883 261.319 51.3864 261.319 51.9028C261.319 52.407 261.208 52.8601 260.986 53.2624C260.765 53.6586 260.443 54.0126 260.023 54.3248C259.608 54.6309 259.102 54.898 258.502 55.1262L258.655 54.9011C259.171 55.1472 259.648 55.4294 260.086 55.7475C260.53 56.0656 260.887 56.4498 261.157 56.9C261.434 57.3442 261.572 57.8875 261.572 58.5298C261.572 59.2021 261.424 59.8144 261.131 60.3666C260.842 60.9129 260.371 61.3481 259.716 61.6722C259.063 61.9963 258.196 62.1585 257.116 62.1585ZM257.187 60.6998C257.919 60.6998 258.475 60.6038 258.853 60.4116C259.237 60.2196 259.498 59.9555 259.636 59.6193C259.78 59.2831 259.852 58.9049 259.852 58.4847C259.852 57.9805 259.702 57.5603 259.402 57.2242C259.108 56.882 258.718 56.5848 258.231 56.3327C257.745 56.0747 257.221 55.8255 256.656 55.5855L257.358 55.6754C256.398 56.0057 255.666 56.3988 255.162 56.855C254.664 57.3052 254.415 57.8485 254.415 58.4847C254.415 58.9049 254.493 59.2831 254.649 59.6193C254.805 59.9555 255.084 60.2196 255.486 60.4116C255.889 60.6038 256.455 60.6998 257.187 60.6998ZM256.881 54.3968C257.308 54.2649 257.731 54.0847 258.151 53.8567C258.576 53.6225 258.93 53.3464 259.213 53.0283C259.495 52.7101 259.636 52.3559 259.636 51.9657C259.636 51.6836 259.582 51.4075 259.474 51.1374C259.371 50.8672 259.146 50.6451 258.799 50.471C258.456 50.2909 257.919 50.201 257.187 50.201C256.539 50.201 256.029 50.285 255.657 50.4531C255.285 50.6151 255.021 50.8282 254.865 51.0923C254.709 51.3505 254.631 51.6266 254.631 51.9207C254.631 52.3349 254.772 52.692 255.054 52.9922C255.342 53.2924 255.717 53.5595 256.18 53.7936C256.647 54.0276 257.149 54.2588 257.682 54.4869L256.881 54.3968Z" fill="white"/>
<path d="M305.606 61.9604L309.26 55.7655L309.449 56.0806C309.048 56.3747 308.67 56.5759 308.316 56.6839C307.967 56.792 307.525 56.846 306.992 56.846C306.091 56.846 305.338 56.681 304.732 56.3508C304.127 56.0207 303.67 55.5644 303.364 54.9821C303.058 54.3938 302.905 53.7185 302.905 52.9562C302.905 52.1939 303.043 51.4946 303.32 50.8582C303.601 50.2219 304.057 49.7116 304.688 49.3275C305.324 48.9374 306.169 48.7422 307.225 48.7422C308.288 48.7422 309.131 48.9313 309.755 49.3095C310.379 49.6817 310.827 50.1799 311.097 50.8042C311.367 51.4284 311.502 52.1158 311.502 52.8662C311.502 53.4544 311.43 54.0157 311.285 54.5499C311.141 55.0842 310.932 55.6334 310.655 56.1977C310.379 56.762 310.043 57.3862 309.647 58.0706L307.406 61.9604H305.606ZM307.19 55.3783C307.898 55.3783 308.441 55.2522 308.819 55.0001C309.198 54.748 309.458 54.4239 309.602 54.0276C309.747 53.6255 309.818 53.2084 309.818 52.7761C309.818 52.3258 309.743 51.9057 309.593 51.5155C309.449 51.1254 309.185 50.8102 308.801 50.57C308.417 50.324 307.868 50.201 307.154 50.201C306.446 50.201 305.908 50.324 305.542 50.57C305.176 50.8102 304.925 51.1254 304.786 51.5155C304.655 51.9057 304.589 52.3258 304.589 52.7761C304.589 53.2084 304.655 53.6255 304.786 54.0276C304.925 54.4239 305.179 54.748 305.552 55.0001C305.929 55.2522 306.476 55.3783 307.19 55.3783Z" fill="#9F9892"/>
</g>
<g clip-path="url(#clip1_252_732)">
<path d="M11.9143 19.5048C11.9424 19.5048 11.9564 19.547 11.9564 19.6313C11.9564 19.7156 11.9424 19.7577 11.9143 19.7577C11.6193 19.7577 11.2893 19.7507 10.9241 19.7366C10.5729 19.7225 10.2077 19.7156 9.8285 19.7156C9.47735 19.7156 9.13323 19.7225 8.79613 19.7366C8.45903 19.7507 8.15705 19.7577 7.89018 19.7577C7.86209 19.7577 7.84804 19.7156 7.84804 19.6313C7.84804 19.547 7.86209 19.5048 7.89018 19.5048C8.28346 19.5048 8.53629 19.4135 8.64865 19.2308C8.76101 19.0481 8.8172 18.6548 8.8172 18.0506V13.3299C8.8172 12.9084 8.81018 12.6133 8.79613 12.4447C8.78208 12.2621 8.72591 12.1567 8.62758 12.1286C8.54331 12.0865 8.39583 12.0654 8.18514 12.0654H5.76224C5.55155 12.0654 5.39705 12.0865 5.29873 12.1286C5.21445 12.1707 5.15826 12.2831 5.13018 12.4658C5.11613 12.6344 5.10911 12.9365 5.10911 13.372V18.0506C5.10911 18.6548 5.15826 19.0481 5.25659 19.2308C5.36895 19.4135 5.61476 19.5048 5.99399 19.5048C6.03613 19.5048 6.0572 19.547 6.0572 19.6313C6.0572 19.7156 6.03613 19.7577 5.99399 19.7577C5.74117 19.7577 5.45323 19.7507 5.13018 19.7366C4.80713 19.7225 4.48407 19.7156 4.16102 19.7156C3.76773 19.7156 3.38147 19.7225 3.00224 19.7366C2.63705 19.7507 2.29995 19.7577 1.99094 19.7577C1.9488 19.7577 1.92773 19.7156 1.92773 19.6313C1.92773 19.547 1.9488 19.5048 1.99094 19.5048C2.48254 19.5048 2.79857 19.4135 2.93903 19.2308C3.07949 19.0481 3.14972 18.6548 3.14972 18.0506V13.3299C3.14972 12.7117 3.07949 12.3183 2.93903 12.1497C2.79857 11.967 2.48957 11.8757 2.01201 11.8757C1.96987 11.8757 1.9488 11.8336 1.9488 11.7493C1.9488 11.665 1.96987 11.6228 2.01201 11.6228H11.9143C11.9424 11.6228 11.9564 11.665 11.9564 11.7493C11.9564 11.8336 11.9424 11.8757 11.9143 11.8757C11.4367 11.8757 11.1277 11.9741 10.9873 12.1707C10.8468 12.3674 10.7766 12.7679 10.7766 13.372V18.0506C10.7766 18.6548 10.8468 19.0481 10.9873 19.2308C11.1277 19.4135 11.4367 19.5048 11.9143 19.5048ZM15.3729 15.9432V15.4374H21.0403V15.9432H15.3729ZM14.4248 18.0506V13.3299C14.4248 12.7117 14.3546 12.3183 14.2141 12.1497C14.0736 11.967 13.7647 11.8757 13.2871 11.8757C13.2449 11.8757 13.2239 11.8336 13.2239 11.7493C13.2239 11.665 13.2449 11.6228 13.2871 11.6228C13.582 11.6228 13.9121 11.6298 14.2773 11.6439C14.6565 11.6579 15.0427 11.665 15.4361 11.665C15.8153 11.665 16.1876 11.6579 16.5527 11.6439C16.9179 11.6298 17.241 11.6228 17.5219 11.6228C17.5499 11.6228 17.564 11.665 17.564 11.7493C17.564 11.8336 17.5499 11.8757 17.5219 11.8757C17.0443 11.8757 16.7353 11.9741 16.5948 12.1707C16.4543 12.3674 16.3842 12.7679 16.3842 13.372V18.0506C16.3842 18.6548 16.4543 19.0481 16.5948 19.2308C16.7353 19.4135 17.0443 19.5048 17.5219 19.5048C17.5499 19.5048 17.564 19.547 17.564 19.6313C17.564 19.7156 17.5499 19.7577 17.5219 19.7577C17.2269 19.7577 16.8968 19.7507 16.5316 19.7366C16.1804 19.7225 15.8153 19.7156 15.4361 19.7156C15.0427 19.7156 14.6565 19.7225 14.2773 19.7366C13.9121 19.7507 13.575 19.7577 13.266 19.7577C13.2239 19.7577 13.2028 19.7156 13.2028 19.6313C13.2028 19.547 13.2239 19.5048 13.266 19.5048C13.7575 19.5048 14.0736 19.4135 14.2141 19.2308C14.3546 19.0481 14.4248 18.6548 14.4248 18.0506ZM20.0922 18.0506V13.3299C20.0922 12.7117 20.0221 12.3183 19.8816 12.1497C19.7411 11.967 19.4321 11.8757 18.9545 11.8757C18.9124 11.8757 18.8913 11.8336 18.8913 11.7493C18.8913 11.665 18.9124 11.6228 18.9545 11.6228C19.2495 11.6228 19.5796 11.6298 19.9448 11.6439C20.324 11.6579 20.7102 11.665 21.1035 11.665C21.4828 11.665 21.855 11.6579 22.2202 11.6439C22.5853 11.6298 22.9085 11.6228 23.1893 11.6228C23.2174 11.6228 23.2315 11.665 23.2315 11.7493C23.2315 11.8336 23.2174 11.8757 23.1893 11.8757C22.7117 11.8757 22.4028 11.9741 22.2623 12.1707C22.1218 12.3674 22.0516 12.7679 22.0516 13.372V18.0506C22.0516 18.6548 22.1218 19.0481 22.2623 19.2308C22.4028 19.4135 22.7117 19.5048 23.1893 19.5048C23.2174 19.5048 23.2315 19.547 23.2315 19.6313C23.2315 19.7156 23.2174 19.7577 23.1893 19.7577C22.8944 19.7577 22.5643 19.7507 22.1991 19.7366C21.8479 19.7225 21.4828 19.7156 21.1035 19.7156C20.7102 19.7156 20.324 19.7225 19.9448 19.7366C19.5655 19.7507 19.2284 19.7577 18.9335 19.7577C18.8913 19.7577 18.8703 19.7156 18.8703 19.6313C18.8703 19.547 18.8913 19.5048 18.9335 19.5048C19.425 19.5048 19.7411 19.4135 19.8816 19.2308C20.0221 19.0481 20.0922 18.6548 20.0922 18.0506Z" fill="#9F9892"/>
<path d="M56.8329 11.6439C57.17 11.6439 57.5422 11.6369 57.9495 11.6228C58.3709 11.5947 58.7571 11.5807 59.1083 11.5807C60.0775 11.5807 60.8149 11.7141 61.3205 11.9811C61.8403 12.248 62.1001 12.6485 62.1001 13.1823C62.1001 13.9551 61.3978 14.7138 59.9932 15.4584L59.7404 15.2898C59.8106 15.0932 59.8668 14.8753 59.9089 14.6365C59.9511 14.3836 59.9721 14.1027 59.9721 13.7935C59.9721 13.1332 59.8598 12.6695 59.635 12.4026C59.4243 12.1356 59.0803 12.0022 58.6027 12.0022C58.2797 12.0022 58.0619 12.0864 57.9495 12.255C57.8372 12.4236 57.781 12.796 57.781 13.372V18.0506C57.781 18.4862 57.8653 18.8163 58.0338 19.0412C58.2024 19.2519 58.5464 19.3573 59.0662 19.3573C59.6702 19.3573 60.1126 19.2167 60.3935 18.9358C60.6744 18.6407 60.8149 18.2051 60.8149 17.6291C60.8149 17.0531 60.6604 16.5754 60.3514 16.1961C60.0564 15.8167 59.5508 15.627 58.8344 15.627H56.9172L56.8961 15.2266H59.5718C61.8472 15.2266 62.985 15.8799 62.985 17.1866C62.985 17.9453 62.6548 18.5705 61.9947 19.0622C61.3346 19.5539 60.4778 19.7999 59.4243 19.7999C59.1153 19.7999 58.701 19.7858 58.1813 19.7577C57.6756 19.7297 57.2262 19.7156 56.8329 19.7156C56.4396 19.7156 56.0533 19.7225 55.6741 19.7366C55.309 19.7507 54.9719 19.7577 54.6628 19.7577C54.6207 19.7577 54.5996 19.7156 54.5996 19.6313C54.5996 19.547 54.6207 19.5048 54.6628 19.5048C55.1544 19.5048 55.4704 19.4135 55.6109 19.2308C55.7514 19.0481 55.8216 18.6548 55.8216 18.0506V13.3299C55.8216 12.7117 55.7514 12.3183 55.6109 12.1497C55.4704 11.967 55.1615 11.8757 54.6839 11.8757C54.6417 11.8757 54.6207 11.8336 54.6207 11.7493C54.6207 11.665 54.6417 11.6228 54.6839 11.6228C54.9788 11.6228 55.309 11.6298 55.6741 11.6439C56.0533 11.6439 56.4396 11.6439 56.8329 11.6439ZM65.8309 19.7577C65.7888 19.7577 65.7677 19.7156 65.7677 19.6313C65.7677 19.547 65.7888 19.5048 65.8309 19.5048C66.3225 19.5048 66.6385 19.4135 66.779 19.2308C66.9194 19.0481 66.9897 18.6548 66.9897 18.0506V13.372C66.9897 12.8803 66.9546 12.5431 66.8844 12.3604C66.8141 12.1778 66.6596 12.0864 66.4209 12.0864C65.9573 12.0864 65.571 12.2621 65.2621 12.6133C64.953 12.9505 64.6581 13.5265 64.3772 14.3415C64.3631 14.3836 64.314 14.4047 64.2297 14.4047C64.1594 14.4047 64.1244 14.3836 64.1244 14.3415C64.1244 14.1448 64.1244 13.8498 64.1244 13.4563C64.1244 13.0629 64.1173 12.6555 64.1033 12.234C64.1033 11.8125 64.1033 11.4753 64.1033 11.2224C64.1033 11.1521 64.1454 11.117 64.2297 11.117C64.314 11.117 64.3561 11.1521 64.3561 11.2224C64.3561 11.405 64.637 11.5244 65.1989 11.5807C65.7747 11.6228 66.7228 11.6439 68.0432 11.6439C68.8438 11.6439 69.5039 11.6369 70.0236 11.6228C70.5432 11.5947 70.9296 11.5526 71.1824 11.4964C71.4352 11.4401 71.5616 11.3488 71.5616 11.2224C71.5616 11.1521 71.6038 11.117 71.688 11.117C71.7723 11.117 71.8144 11.1521 71.8144 11.2224C71.8144 11.4753 71.8144 11.8125 71.8144 12.234C71.8144 12.6555 71.8073 13.0629 71.7934 13.4563C71.7934 13.8498 71.7934 14.1448 71.7934 14.3415C71.7934 14.3836 71.7512 14.4047 71.667 14.4047C71.5967 14.4047 71.5545 14.3836 71.5406 14.3415C71.2736 13.5265 70.9787 12.9505 70.6557 12.6133C70.3466 12.2621 69.9674 12.0864 69.518 12.0864C69.2932 12.0864 69.1387 12.1778 69.0544 12.3604C68.9841 12.5431 68.9491 12.8803 68.9491 13.372V18.0506C68.9491 18.6548 69.0193 19.0481 69.1598 19.2308C69.3002 19.4135 69.6092 19.5048 70.0868 19.5048C70.129 19.5048 70.15 19.547 70.15 19.6313C70.15 19.7156 70.129 19.7577 70.0868 19.7577C69.7919 19.7577 69.4617 19.7507 69.0966 19.7366C68.7454 19.7225 68.3803 19.7156 68.001 19.7156C67.6077 19.7156 67.2215 19.7225 66.8422 19.7366C66.477 19.7507 66.1399 19.7577 65.8309 19.7577Z" fill="#9F9892"/>
<path d="M106.323 20.0106C105.354 20.0106 104.553 19.8068 103.921 19.3994C103.289 18.9779 102.819 18.4441 102.51 17.7977C102.215 17.1514 102.067 16.4981 102.067 15.8378C102.067 15.1353 102.215 14.51 102.51 13.9621C102.805 13.4142 103.191 12.9575 103.669 12.5922C104.16 12.2129 104.701 11.9249 105.291 11.7282C105.881 11.5315 106.464 11.4331 107.04 11.4331C107.447 11.4331 107.854 11.4963 108.262 11.6228C108.669 11.7352 109.006 11.9108 109.273 12.1497C109.54 12.3745 109.673 12.6625 109.673 13.0137C109.673 13.2525 109.575 13.4774 109.378 13.6881C109.182 13.8848 108.894 13.9832 108.514 13.9832C108.163 13.9832 107.889 13.8919 107.693 13.7092C107.496 13.5265 107.342 13.2596 107.229 12.9084C107.131 12.5712 107.019 12.3183 106.892 12.1497C106.78 11.967 106.555 11.8757 106.218 11.8757C105.614 11.8757 105.129 12.1778 104.764 12.7819C104.413 13.3861 104.237 14.1729 104.237 15.1423C104.237 15.8447 104.343 16.4911 104.553 17.0812C104.764 17.6572 105.108 18.1208 105.586 18.4721C106.063 18.8093 106.702 18.9779 107.503 18.9779C107.924 18.9779 108.276 18.9288 108.557 18.8304C108.852 18.732 109.175 18.5986 109.526 18.43C109.554 18.4019 109.589 18.4159 109.631 18.4721C109.687 18.5284 109.701 18.5705 109.673 18.5986C109.182 19.0481 108.676 19.3994 108.156 19.6523C107.636 19.8911 107.026 20.0106 106.323 20.0106ZM110.744 25.5533C110.701 25.5533 110.68 25.5111 110.68 25.4268C110.68 25.3425 110.701 25.3004 110.744 25.3004C111.235 25.3004 111.551 25.2091 111.692 25.0264C111.846 24.8437 111.923 24.4504 111.923 23.8462V13.3299C111.923 12.7117 111.811 12.3183 111.586 12.1497C111.376 11.967 111.024 11.8757 110.533 11.8757C110.505 11.8757 110.491 11.8335 110.491 11.7492C110.491 11.6649 110.505 11.6228 110.533 11.6228C110.744 11.6228 111.024 11.6228 111.376 11.6228C111.727 11.6228 112.085 11.6228 112.45 11.6228C112.829 11.6228 113.152 11.6228 113.419 11.6228C113.616 11.6228 113.742 11.6649 113.799 11.7492C113.855 11.8195 113.883 11.9389 113.883 12.1075V23.8462C113.883 24.2397 113.925 24.5417 114.009 24.7524C114.107 24.9632 114.29 25.1037 114.557 25.1739C114.824 25.2582 115.224 25.3004 115.758 25.3004C115.8 25.3004 115.821 25.3425 115.821 25.4268C115.821 25.5111 115.8 25.5533 115.758 25.5533C115.365 25.5533 114.922 25.5463 114.431 25.5322C113.939 25.5181 113.419 25.5111 112.872 25.5111C112.478 25.5111 112.092 25.5181 111.713 25.5322C111.347 25.5463 111.024 25.5533 110.744 25.5533ZM115.695 20.0317C115.147 20.0317 114.676 19.9895 114.283 19.9052C113.904 19.8209 113.447 19.6875 112.914 19.5048L113.651 18.1771C113.96 18.5564 114.29 18.8726 114.641 19.1255C115.006 19.3783 115.491 19.5048 116.095 19.5048C116.755 19.5048 117.275 19.2167 117.654 18.6407C118.033 18.0647 118.223 17.1444 118.223 15.8799C118.223 14.756 117.963 13.92 117.443 13.372C116.924 12.81 116.313 12.529 115.61 12.529C115.091 12.529 114.641 12.6625 114.262 12.9294C113.883 13.1964 113.511 13.5336 113.145 13.941L112.935 13.6881C113.651 12.8592 114.332 12.2621 114.978 11.8968C115.639 11.5315 116.313 11.3488 117.001 11.3488C117.591 11.3488 118.139 11.5034 118.644 11.8125C119.15 12.1075 119.557 12.5431 119.866 13.1191C120.189 13.6951 120.351 14.3977 120.351 15.2266C120.351 16.1258 120.203 16.8845 119.908 17.5027C119.627 18.1208 119.255 18.6197 118.792 18.999C118.328 19.3643 117.823 19.6243 117.275 19.7788C116.741 19.9474 116.214 20.0317 115.695 20.0317Z" fill="#9F9892"/>
<path d="M155.782 18.0506V13.3299C155.782 12.7117 155.733 12.3183 155.634 12.1497C155.55 11.967 155.346 11.8757 155.023 11.8757C154.981 11.8757 154.96 11.8336 154.96 11.7493C154.96 11.665 154.981 11.6228 155.023 11.6228C155.262 11.6228 155.536 11.6298 155.845 11.6439C156.168 11.6579 156.484 11.665 156.793 11.665C157.172 11.665 157.545 11.6579 157.91 11.6439C158.275 11.6298 158.599 11.6228 158.879 11.6228C158.921 11.6228 158.942 11.665 158.942 11.7493C158.942 11.8336 158.921 11.8757 158.879 11.8757C158.401 11.8757 158.093 11.9741 157.952 12.1707C157.826 12.3674 157.762 12.7679 157.762 13.372V18.0506C157.762 18.6548 157.826 19.0481 157.952 19.2308C158.093 19.4135 158.401 19.5048 158.879 19.5048C158.921 19.5048 158.942 19.547 158.942 19.6313C158.942 19.7156 158.921 19.7577 158.879 19.7577C158.584 19.7577 158.254 19.7507 157.889 19.7366C157.537 19.7225 157.172 19.7156 156.793 19.7156C156.4 19.7156 156.014 19.7225 155.634 19.7366C155.255 19.7507 154.918 19.7577 154.623 19.7577C154.596 19.7577 154.581 19.7156 154.581 19.6313C154.581 19.547 154.596 19.5048 154.623 19.5048C155.114 19.5048 155.43 19.4135 155.571 19.2308C155.712 19.0481 155.782 18.6548 155.782 18.0506ZM152.896 13.372C152.896 13.4844 152.896 13.5897 152.896 13.6881C152.896 13.7724 152.896 13.8567 152.896 13.941C152.896 14.5733 152.994 15.03 153.191 15.3109C153.401 15.5779 153.732 15.7113 154.181 15.7113C154.659 15.7113 155.038 15.6692 155.318 15.5849C155.613 15.4865 155.894 15.3672 156.161 15.2266L156.245 15.4374C155.698 15.9151 155.156 16.2523 154.623 16.449C154.09 16.6456 153.612 16.744 153.191 16.744C152.502 16.744 151.954 16.5473 151.547 16.1539C151.153 15.7605 150.957 15.1775 150.957 14.4047V13.3299C150.957 12.7117 150.915 12.3183 150.831 12.1497C150.761 11.967 150.585 11.8757 150.304 11.8757C150.276 11.8757 150.262 11.8336 150.262 11.7493C150.262 11.665 150.276 11.6228 150.304 11.6228C150.542 11.6228 150.803 11.6298 151.084 11.6439C151.364 11.6579 151.659 11.665 151.969 11.665C152.278 11.665 152.58 11.6579 152.874 11.6439C153.184 11.6298 153.458 11.6228 153.696 11.6228C153.724 11.6228 153.738 11.665 153.738 11.7493C153.738 11.8336 153.724 11.8757 153.696 11.8757C153.359 11.8757 153.142 11.9741 153.043 12.1707C152.944 12.3674 152.896 12.7679 152.896 13.372ZM161.834 19.7577C161.792 19.7577 161.771 19.7156 161.771 19.6313C161.771 19.547 161.792 19.5048 161.834 19.5048C162.325 19.5048 162.641 19.4135 162.782 19.2308C162.922 19.0481 162.993 18.6548 162.993 18.0506V13.372C162.993 12.8803 162.957 12.5431 162.887 12.3604C162.816 12.1778 162.662 12.0864 162.424 12.0864C161.96 12.0864 161.573 12.2621 161.265 12.6133C160.956 12.9505 160.661 13.5265 160.38 14.3415C160.366 14.3836 160.317 14.4047 160.233 14.4047C160.162 14.4047 160.127 14.3836 160.127 14.3415C160.127 14.1448 160.127 13.8498 160.127 13.4563C160.127 13.0629 160.119 12.6555 160.106 12.234C160.106 11.8125 160.106 11.4753 160.106 11.2224C160.106 11.1521 160.148 11.117 160.233 11.117C160.317 11.117 160.359 11.1521 160.359 11.2224C160.359 11.405 160.64 11.5244 161.202 11.5807C161.777 11.6228 162.725 11.6439 164.046 11.6439C164.847 11.6439 165.506 11.6369 166.027 11.6228C166.545 11.5947 166.933 11.5526 167.185 11.4964C167.438 11.4401 167.565 11.3488 167.565 11.2224C167.565 11.1521 167.607 11.117 167.691 11.117C167.775 11.117 167.817 11.1521 167.817 11.2224C167.817 11.4753 167.817 11.8125 167.817 12.234C167.817 12.6555 167.81 13.0629 167.796 13.4563C167.796 13.8498 167.796 14.1448 167.796 14.3415C167.796 14.3836 167.754 14.4047 167.67 14.4047C167.599 14.4047 167.557 14.3836 167.544 14.3415C167.276 13.5265 166.981 12.9505 166.659 12.6133C166.349 12.2621 165.97 12.0864 165.521 12.0864C165.296 12.0864 165.142 12.1778 165.057 12.3604C164.986 12.5431 164.952 12.8803 164.952 13.372V18.0506C164.952 18.6548 165.022 19.0481 165.163 19.2308C165.302 19.4135 165.612 19.5048 166.09 19.5048C166.132 19.5048 166.153 19.547 166.153 19.6313C166.153 19.7156 166.132 19.7577 166.09 19.7577C165.795 19.7577 165.464 19.7507 165.1 19.7366C164.748 19.7225 164.383 19.7156 164.004 19.7156C163.61 19.7156 163.224 19.7225 162.845 19.7366C162.479 19.7507 162.142 19.7577 161.834 19.7577Z" fill="#9F9892"/>
<path d="M208.117 19.5048C208.144 19.5048 208.159 19.547 208.159 19.6313C208.159 19.7156 208.144 19.7577 208.117 19.7577C207.822 19.7577 207.491 19.7507 207.126 19.7366C206.775 19.7225 206.41 19.7156 206.031 19.7156C205.679 19.7156 205.336 19.7225 204.999 19.7366C204.661 19.7507 204.36 19.7577 204.093 19.7577C204.065 19.7577 204.05 19.7156 204.05 19.6313C204.05 19.547 204.065 19.5048 204.093 19.5048C204.486 19.5048 204.739 19.4135 204.851 19.2308C204.963 19.0481 205.02 18.6548 205.02 18.0506V13.3299C205.02 12.9084 205.013 12.6133 204.999 12.4447C204.984 12.2621 204.929 12.1567 204.83 12.1286C204.746 12.0865 204.598 12.0654 204.388 12.0654H201.965C201.754 12.0654 201.6 12.0865 201.501 12.1286C201.417 12.1707 201.36 12.2831 201.333 12.4658C201.318 12.6344 201.312 12.9365 201.312 13.372V18.0506C201.312 18.6548 201.36 19.0481 201.459 19.2308C201.571 19.4135 201.817 19.5048 202.196 19.5048C202.239 19.5048 202.26 19.547 202.26 19.6313C202.26 19.7156 202.239 19.7577 202.196 19.7577C201.944 19.7577 201.655 19.7507 201.333 19.7366C201.01 19.7225 200.686 19.7156 200.363 19.7156C199.97 19.7156 199.584 19.7225 199.205 19.7366C198.84 19.7507 198.503 19.7577 198.193 19.7577C198.151 19.7577 198.13 19.7156 198.13 19.6313C198.13 19.547 198.151 19.5048 198.193 19.5048C198.684 19.5048 199.001 19.4135 199.141 19.2308C199.282 19.0481 199.352 18.6548 199.352 18.0506V13.3299C199.352 12.7117 199.282 12.3183 199.141 12.1497C199.001 11.967 198.692 11.8757 198.214 11.8757C198.172 11.8757 198.151 11.8336 198.151 11.7493C198.151 11.665 198.172 11.6228 198.214 11.6228H208.117C208.144 11.6228 208.159 11.665 208.159 11.7493C208.159 11.8336 208.144 11.8757 208.117 11.8757C207.639 11.8757 207.331 11.9741 207.19 12.1707C207.049 12.3674 206.979 12.7679 206.979 13.372V18.0506C206.979 18.6548 207.049 19.0481 207.19 19.2308C207.331 19.4135 207.639 19.5048 208.117 19.5048ZM211.049 19.7577C211.007 19.7577 210.986 19.7156 210.986 19.6313C210.986 19.547 211.007 19.5048 211.049 19.5048C211.54 19.5048 211.856 19.4135 211.997 19.2308C212.137 19.0481 212.208 18.6548 212.208 18.0506V13.372C212.208 12.8803 212.172 12.5431 212.103 12.3604C212.032 12.1778 211.877 12.0864 211.639 12.0864C211.176 12.0864 210.788 12.2621 210.48 12.6133C210.171 12.9505 209.876 13.5265 209.595 14.3415C209.581 14.3836 209.532 14.4047 209.448 14.4047C209.377 14.4047 209.343 14.3836 209.343 14.3415C209.343 14.1448 209.343 13.8498 209.343 13.4563C209.343 13.0629 209.335 12.6555 209.322 12.234C209.322 11.8125 209.322 11.4753 209.322 11.2224C209.322 11.1521 209.364 11.117 209.448 11.117C209.532 11.117 209.574 11.1521 209.574 11.2224C209.574 11.405 209.855 11.5244 210.417 11.5807C210.993 11.6228 211.941 11.6439 213.261 11.6439C214.062 11.6439 214.722 11.6369 215.242 11.6228C215.761 11.5947 216.148 11.5526 216.401 11.4964C216.653 11.4401 216.78 11.3488 216.78 11.2224C216.78 11.1521 216.822 11.117 216.906 11.117C216.991 11.117 217.033 11.1521 217.033 11.2224C217.033 11.4753 217.033 11.8125 217.033 12.234C217.033 12.6555 217.025 13.0629 217.012 13.4563C217.012 13.8498 217.012 14.1448 217.012 14.3415C217.012 14.3836 216.969 14.4047 216.885 14.4047C216.814 14.4047 216.772 14.3836 216.759 14.3415C216.491 13.5265 216.197 12.9505 215.874 12.6133C215.564 12.2621 215.185 12.0864 214.736 12.0864C214.511 12.0864 214.357 12.1778 214.273 12.3604C214.202 12.5431 214.167 12.8803 214.167 13.372V18.0506C214.167 18.6548 214.237 19.0481 214.378 19.2308C214.518 19.4135 214.827 19.5048 215.305 19.5048C215.347 19.5048 215.368 19.547 215.368 19.6313C215.368 19.7156 215.347 19.7577 215.305 19.7577C215.01 19.7577 214.68 19.7507 214.315 19.7366C213.963 19.7225 213.599 19.7156 213.219 19.7156C212.826 19.7156 212.44 19.7225 212.06 19.7366C211.694 19.7507 211.357 19.7577 211.049 19.7577Z" fill="#9F9892"/>
<path d="M252.487 20.0106C251.518 20.0106 250.718 19.8068 250.085 19.3994C249.453 18.9779 248.983 18.4441 248.674 17.7977C248.379 17.1514 248.231 16.4981 248.231 15.8378C248.231 15.1353 248.379 14.51 248.674 13.9621C248.969 13.4141 249.355 12.9575 249.833 12.5922C250.324 12.2129 250.865 11.9248 251.455 11.7282C252.045 11.5315 252.628 11.4331 253.204 11.4331C253.611 11.4331 254.019 11.4963 254.426 11.6228C254.833 11.7352 255.17 11.9108 255.437 12.1496C255.704 12.3745 255.837 12.6625 255.837 13.0137C255.837 13.2525 255.738 13.4774 255.542 13.6881C255.346 13.8848 255.058 13.9832 254.678 13.9832C254.327 13.9832 254.053 13.8919 253.857 13.7092C253.661 13.5265 253.505 13.2596 253.393 12.9083C253.295 12.5711 253.183 12.3182 253.056 12.1496C252.944 11.967 252.719 11.8757 252.382 11.8757C251.778 11.8757 251.293 12.1777 250.928 12.7819C250.577 13.3861 250.402 14.1728 250.402 15.1423C250.402 15.8447 250.507 16.4911 250.718 17.0812C250.928 17.6572 251.272 18.1208 251.75 18.4721C252.228 18.8093 252.867 18.9779 253.667 18.9779C254.089 18.9779 254.44 18.9288 254.721 18.8304C255.016 18.732 255.338 18.5986 255.69 18.43C255.717 18.4019 255.753 18.4159 255.795 18.4721C255.852 18.5284 255.865 18.5705 255.837 18.5986C255.346 19.0481 254.84 19.3994 254.32 19.6523C253.8 19.8911 253.189 20.0106 252.487 20.0106ZM261.082 20.0317C260.351 20.0317 259.67 19.8631 259.038 19.5259C258.421 19.1746 257.922 18.6266 257.542 17.882C257.178 17.1374 256.995 16.175 256.995 14.9948C256.995 13.2104 257.191 11.7633 257.585 10.6533C257.978 9.52934 258.539 8.65824 259.27 8.04005C260.001 7.4078 260.865 6.94415 261.862 6.6491C262.325 6.5086 262.746 6.36811 263.126 6.22761C263.505 6.07306 263.842 5.86231 264.137 5.59536C264.446 5.32841 264.706 4.95609 264.917 4.47839C264.931 4.43624 264.973 4.42219 265.043 4.43624C265.113 4.45029 265.142 4.47839 265.127 4.52054C265.015 5.27924 264.874 5.89743 264.706 6.37513C264.552 6.83878 264.348 7.2111 264.095 7.4921C263.857 7.77309 263.554 8.00492 263.189 8.18757C262.824 8.35617 262.382 8.52477 261.862 8.69337C261.257 8.87602 260.688 9.11487 260.155 9.40991C259.622 9.70496 259.144 10.1124 258.722 10.6323C258.315 11.1521 257.992 11.8405 257.753 12.6976C257.528 13.5406 257.416 14.6154 257.416 15.9221L257.226 15.0791C257.494 14.222 257.831 13.5547 258.238 13.0769C258.659 12.5992 259.081 12.262 259.502 12.0654C259.938 11.8546 260.317 11.7282 260.64 11.686C260.977 11.6298 261.208 11.6017 261.335 11.6017C262.178 11.6017 262.879 11.7282 263.442 11.9811C264.017 12.2199 264.474 12.5431 264.811 12.9505C265.163 13.3579 265.408 13.8005 265.549 14.2782C265.703 14.7419 265.78 15.1985 265.78 15.6481C265.78 16.5613 265.555 17.3482 265.106 18.0085C264.67 18.6548 264.095 19.1535 263.379 19.5048C262.677 19.8561 261.91 20.0317 261.082 20.0317ZM261.904 19.5891C262.437 19.5891 262.852 19.3151 263.147 18.7672C263.442 18.2192 263.589 17.4043 263.589 16.3225C263.589 15.3671 263.469 14.5733 263.231 13.941C262.993 13.2947 262.683 12.817 262.304 12.5079C261.925 12.1848 261.51 12.0232 261.061 12.0232C260.612 12.0232 260.254 12.1848 259.986 12.5079C259.734 12.817 259.551 13.2175 259.439 13.7092C259.34 14.1869 259.291 14.6927 259.291 15.2266C259.291 16.0555 259.397 16.8002 259.607 17.4605C259.818 18.1208 260.119 18.6407 260.513 19.0201C260.907 19.3994 261.37 19.5891 261.904 19.5891Z" fill="#9F9892"/>
<path d="M299.123 11.6439C299.46 11.6439 299.833 11.6368 300.24 11.6228C300.661 11.5947 301.047 11.5806 301.398 11.5806C302.368 11.5806 303.105 11.7141 303.611 11.9811C304.131 12.248 304.39 12.6484 304.39 13.1823C304.39 13.9551 303.688 14.7138 302.283 15.4584L302.03 15.2898C302.1 15.0932 302.157 14.8753 302.199 14.6365C302.241 14.3836 302.262 14.1026 302.262 13.7935C302.262 13.1332 302.15 12.6695 301.925 12.4026C301.714 12.1356 301.371 12.0021 300.893 12.0021C300.57 12.0021 300.351 12.0864 300.24 12.255C300.128 12.4236 300.071 12.796 300.071 13.372V18.0506C300.071 18.4862 300.155 18.8163 300.324 19.0411C300.492 19.2519 300.836 19.3573 301.356 19.3573C301.961 19.3573 302.403 19.2167 302.684 18.9358C302.964 18.6407 303.105 18.2051 303.105 17.6291C303.105 17.0531 302.951 16.5754 302.641 16.196C302.346 15.8167 301.841 15.627 301.124 15.627H299.207L299.186 15.2266H301.862C304.137 15.2266 305.275 15.8799 305.275 17.1866C305.275 17.9452 304.944 18.5705 304.285 19.0622C303.625 19.5539 302.768 19.7998 301.714 19.7998C301.405 19.7998 300.991 19.7857 300.471 19.7577C299.966 19.7296 299.517 19.7155 299.123 19.7155C298.729 19.7155 298.343 19.7225 297.964 19.7366C297.599 19.7507 297.262 19.7577 296.953 19.7577C296.911 19.7577 296.89 19.7155 296.89 19.6312C296.89 19.5469 296.911 19.5048 296.953 19.5048C297.444 19.5048 297.76 19.4135 297.901 19.2308C298.042 19.0481 298.112 18.6548 298.112 18.0506V13.3298C298.112 12.7117 298.042 12.3183 297.901 12.1497C297.76 11.967 297.452 11.8757 296.974 11.8757C296.932 11.8757 296.911 11.8335 296.911 11.7492C296.911 11.6649 296.932 11.6228 296.974 11.6228C297.269 11.6228 297.599 11.6298 297.964 11.6439C298.343 11.6439 298.729 11.6439 299.123 11.6439ZM310.796 20.0106C309.827 20.0106 309.027 19.8068 308.394 19.3994C307.762 18.9779 307.292 18.4441 306.983 17.7977C306.688 17.1514 306.54 16.4981 306.54 15.8378C306.54 15.1353 306.688 14.51 306.983 13.9621C307.278 13.4141 307.665 12.9575 308.142 12.5922C308.634 12.2129 309.174 11.9248 309.764 11.7282C310.354 11.5315 310.937 11.4331 311.513 11.4331C311.921 11.4331 312.328 11.4963 312.735 11.6228C313.143 11.7352 313.48 11.9108 313.746 12.1497C314.013 12.3745 314.146 12.6625 314.146 13.0137C314.146 13.2525 314.049 13.4774 313.851 13.6881C313.655 13.8848 313.367 13.9832 312.987 13.9832C312.637 13.9832 312.363 13.8919 312.166 13.7092C311.97 13.5265 311.815 13.2596 311.702 12.9083C311.605 12.5711 311.492 12.3183 311.365 12.1497C311.253 11.967 311.028 11.8757 310.691 11.8757C310.088 11.8757 309.603 12.1777 309.237 12.7819C308.887 13.3861 308.71 14.1728 308.71 15.1423C308.71 15.8447 308.816 16.4911 309.027 17.0812C309.237 17.6572 309.582 18.1208 310.059 18.4721C310.537 18.8093 311.176 18.9779 311.976 18.9779C312.398 18.9779 312.749 18.9288 313.03 18.8304C313.325 18.732 313.648 18.5986 313.999 18.43C314.028 18.4019 314.062 18.4159 314.104 18.4721C314.161 18.5284 314.175 18.5705 314.146 18.5986C313.655 19.0481 313.149 19.3994 312.629 19.6523C312.11 19.8911 311.499 20.0106 310.796 20.0106Z" fill="#9F9892"/>
</g>
<defs>
<clipPath id="clip0_252_732">
<rect width="322" height="46" fill="white" transform="translate(0 31)"/>
</clipPath>
<clipPath id="clip1_252_732">
<rect width="322" height="26" fill="white"/>
</clipPath>
</defs>
</svg>
