<svg width="93" height="93" viewBox="0 0 93 93" fill="none" xmlns="http://www.w3.org/2000/svg">
<circle cx="46.5" cy="46.5" r="46.5" fill="#6F7E5F"/>
<path d="M51.429 34.8C51.429 37.3653 50.171 39.869 47.655 42.311C45.2623 44.6297 42.1667 46.5167 38.368 47.972C34.4707 49.4767 30.5857 50.229 26.713 50.229C25.3563 50.229 24.0613 50.1673 22.828 50.044C21.5207 52.7573 20.6943 55.1377 20.349 57.185C20.3243 57.4317 20.312 57.6783 20.312 57.925C20.2627 58.0483 20.1023 58.1347 19.831 58.184C19.3623 58.258 19.1157 58.295 19.091 58.295C18.8443 58.295 18.721 58.1593 18.721 57.888C18.721 56.038 19.646 53.3617 21.496 49.859C19.1033 49.489 17.278 48.9217 16.02 48.157C15.798 48.083 15.687 47.8487 15.687 47.454C15.7363 47.2073 15.7857 47.084 15.835 47.084C16.2297 47.4293 16.686 47.7377 17.204 48.009C18.4867 48.675 19.979 49.1683 21.681 49.489C24.3943 44.4323 27.712 40.1527 31.634 36.65C36.444 32.3333 41.254 30.175 46.064 30.175C49.6407 30.175 51.429 31.7167 51.429 34.8ZM49.838 35.022C49.838 32.358 48.1607 31.026 44.806 31.026C40.5633 31.026 36.296 33.061 32.004 37.131C28.4027 40.5597 25.3933 44.7407 22.976 49.674C23.7407 49.7727 24.6657 49.822 25.751 49.822C30.1663 49.822 34.298 49.0327 38.146 47.454C41.6733 45.9987 44.5223 44.0993 46.693 41.756C48.7897 39.4867 49.838 37.242 49.838 35.022ZM73.0916 31.618C73.1163 32.6787 72.771 33.69 72.0556 34.652C71.6116 35.2933 71.1923 35.7373 70.7976 35.984C70.551 36.1073 70.3906 36.169 70.3166 36.169C70.1933 36.095 70.1316 36.0333 70.1316 35.984C71.4636 34.0353 72.1296 32.7033 72.1296 31.988C72.1296 31.026 71.5623 30.545 70.4276 30.545C68.1583 30.545 65.4203 31.766 62.2136 34.208C59.1056 36.5513 56.4416 39.3387 54.2216 42.57C51.829 46.048 50.6326 49.0943 50.6326 51.709C50.6326 54.003 51.0396 55.631 51.8536 56.593C52.569 57.4563 53.716 57.888 55.2946 57.888C57.4653 57.888 60.1663 56.0997 63.3976 52.523C64.039 49.7357 65.2353 46.9607 66.9866 44.198C68.664 41.534 69.996 40.202 70.9826 40.202C71.2786 40.202 71.4266 40.3747 71.4266 40.72C71.402 41.2873 70.7483 42.681 69.4656 44.901C68.035 47.3923 66.444 49.6987 64.6926 51.82C64.2733 53.3493 64.0636 54.7307 64.0636 55.964C64.0636 58.3813 64.8776 59.812 66.5056 60.256C66.5056 60.4287 66.3083 60.515 65.9136 60.515C63.9896 59.8737 63.0276 58.2457 63.0276 55.631C63.0276 55.0143 63.0893 54.299 63.2126 53.485C60.0553 56.8643 57.268 58.554 54.8506 58.554C52.828 58.554 51.3356 57.7893 50.3736 56.26C49.683 55.1747 49.3376 53.929 49.3376 52.523C49.3376 49.0697 50.6573 45.493 53.2966 41.793C55.6153 38.5123 58.5013 35.7127 61.9546 33.394C65.334 31.1247 68.2323 29.99 70.6496 29.99C72.253 29.99 73.067 30.5327 73.0916 31.618ZM70.9086 40.794C70.9086 40.72 70.847 40.683 70.7236 40.683C69.7123 41.5463 68.664 42.9153 67.5786 44.79C66.518 46.6647 65.667 48.6257 65.0256 50.673C66.5796 48.7243 67.9486 46.7633 69.1326 44.79C70.2426 42.8907 70.8346 41.5587 70.9086 40.794Z" fill="white"/>
</svg>
